<svg width="119" height="35" viewbox="0 0 119 35" fill="none" xmlns="http://www.w3.org/2000/svg"><path d="M46.74 19.78v-3.955H34.122v3.955h4.029v14.134h4.562V19.78h4.027ZM66.385 15.825h-4.561v7.03h-6.67v-7.03h-4.561v18.09h4.561v-7.08h6.67v7.08h4.561v-18.09ZM71.578 15.825h4.562v18.09h-4.562v-18.09ZM92.75 33.915h4.535v-18.09h-4.48v11.217l-6.83-11.217h-4.642v18.09h4.481V22.83l6.935 11.086ZM118.833 23.76h-7.47v3.695h3.229v1.602c-.295.283-1.629 1.11-3.976 1.11-2.96 0-5.255-2.067-5.255-5.426 0-2.92 1.921-5.168 5.256-5.168 2.508 0 4.108 1.447 4.509 1.964l2.881-2.895c-.96-1.163-3.201-3.153-7.602-3.153-5.816 0-9.763 4.16-9.763 9.328 0 5.815 4.374 9.433 9.656 9.433 4.295 0 6.562-1.37 8.536-2.842v-7.649h-.001ZM23.472 18.797c-3.248 0-5.882 2.843-5.882 6.35 0 3.509 2.633 6.352 5.881 6.352 3.247 0 5.88-2.844 5.88-6.352 0-3.508-2.633-6.352-5.88-6.352l.001.002ZM12.127 15.825v11.217L1.247 15.825h10.88ZM.954 33.915V22.7l10.88 11.216H.955ZM4.496 8.675c1.1 0 1.855-.374 2.308-.706l-.432-1.315c-.355.246-1.056.61-1.876.61-1.369 0-2.35-1.038-2.35-2.47 0-1.413.981-2.47 2.35-2.47.766 0 1.445.34 1.812.598l.431-1.326C6.254 1.242 5.5.91 4.496.91 2.222.911.562 2.591.562 4.793c0 2.203 1.573 3.882 3.934 3.882ZM15.03 8.675c2.318 0 3.924-1.679 3.924-3.882 0-2.181-1.606-3.882-3.925-3.882-2.317 0-3.924 1.7-3.924 3.882 0 2.203 1.607 3.882 3.924 3.882Zm0-6.352c1.358 0 2.34 1.058 2.34 2.47 0 1.433-.982 2.47-2.34 2.47-1.359 0-2.34-1.037-2.34-2.47 0-1.412.981-2.47 2.34-2.47ZM26.765 8.675c2.317 0 3.924-1.679 3.924-3.882 0-2.181-1.607-3.882-3.924-3.882-2.318 0-3.925 1.7-3.925 3.882 0 2.203 1.607 3.882 3.925 3.882Zm0-6.352c1.358 0 2.34 1.058 2.34 2.47 0 1.433-.982 2.47-2.34 2.47-1.359 0-2.34-1.037-2.34-2.47 0-1.412.981-2.47 2.34-2.47ZM35.187 8.536h1.52V4.901l2.535 3.635h1.746l-2.803-3.903 2.717-3.583h-1.703l-2.491 3.423V1.05h-1.52v7.486ZM47.572 1.05h-1.52v7.486h1.52V1.051ZM58.065 8.536h1.509V1.051h-1.5v5.111l-3.223-5.111h-1.54v7.485h1.497V3.467l3.257 5.07ZM67.762.911c-2.296 0-3.913 1.733-3.913 3.882 0 2.363 1.779 3.882 3.913 3.882 1.585 0 2.49-.545 3.3-1.23V4.483h-2.858v1.273h1.434v.92c-.162.16-.755.588-1.811.588-1.359 0-2.394-.941-2.394-2.47 0-1.39.917-2.482 2.394-2.482 1.078 0 1.725.578 1.951.824l.96-.984c-.389-.46-1.391-1.24-2.976-1.24ZM88.126 8.536h1.725l2.016-7.485h-1.65l-1.315 5.603-1.499-5.603h-1.401l-1.498 5.603-1.305-5.603h-1.66l2.026 7.485h1.715l1.423-5.165 1.423 5.165ZM97.741 1.05h-1.52v7.486h1.52V1.051ZM104.549 8.536h1.52V2.41h1.757V1.05h-5.045V2.41h1.768v6.127ZM112.168 8.536h1.52v-3.09h3.138v3.09h1.52V1.051h-1.52v3.037h-3.138V1.05h-1.52v7.485Z" fill="currentColor"/></svg>